<?xml version="1.0" standalone="no"?>
<!DOCTYPE svg PUBLIC "-//W3C//DTD SVG 20010904//EN"
 "http://www.w3.org/TR/2001/REC-SVG-20010904/DTD/svg10.dtd">
<svg version="1.0" xmlns="http://www.w3.org/2000/svg"
 width="1024.000000pt" height="1024.000000pt" viewBox="0 0 1024.000000 1024.000000"
 preserveAspectRatio="xMidYMid meet">

<g transform="translate(0.000000,1024.000000) scale(0.100000,-0.100000)"
fill="#000000" stroke="none">
<path d="M0 5120 l0 -5120 5120 0 5120 0 0 5120 0 5120 -5120 0 -5120 0 0
-5120z m5261 1892 c112 -53 195 -158 259 -324 11 -29 50 -150 86 -268 36 -118
101 -329 145 -468 113 -361 120 -391 126 -523 7 -148 -4 -209 -78 -436 -71
-218 -80 -277 -50 -314 27 -35 76 -44 135 -24 57 20 104 68 150 155 38 73 145
362 213 575 24 77 53 165 64 195 30 82 135 394 249 745 56 171 108 315 116
321 9 7 12 19 7 29 -4 12 -3 16 5 11 11 -6 27 27 19 41 -2 5 7 19 20 32 l24
25 -27 -70 c-75 -198 -164 -481 -159 -504 4 -16 3 -20 -3 -12 -7 10 -11 8 -15
-9 -4 -13 -4 -25 -2 -28 3 -2 5 1 5 8 0 9 5 9 20 1 11 -6 20 -8 20 -4 0 4 8
-2 18 -12 9 -10 24 -20 32 -22 8 -2 23 -12 33 -24 9 -11 17 -15 17 -9 0 6 8
11 18 11 14 0 15 -2 2 -10 -13 -8 -13 -10 1 -10 9 0 22 -7 29 -15 7 -8 16 -12
21 -9 5 3 9 0 9 -5 0 -6 8 -11 18 -11 15 0 15 -2 2 -11 -12 -8 -10 -9 10 -7
16 2 24 -2 22 -9 -1 -7 4 -13 12 -13 8 0 21 -8 28 -19 7 -10 21 -17 31 -15 9
1 15 -1 13 -5 -7 -11 72 -43 85 -35 7 4 9 3 6 -3 -4 -6 5 -15 18 -21 14 -7 27
-7 30 -2 3 5 21 3 40 -6 18 -7 41 -11 49 -8 11 4 16 0 16 -11 0 -11 7 -15 23
-13 17 2 23 -3 26 -22 3 -21 6 -17 22 25 36 102 17 14 -32 -145 -28 -91 -64
-212 -80 -270 -16 -58 -36 -127 -44 -155 -91 -291 -118 -379 -131 -430 -8 -33
-35 -121 -59 -195 -25 -74 -92 -282 -151 -462 -140 -433 -236 -698 -274 -759
-77 -119 -210 -199 -331 -199 -137 0 -304 82 -385 187 -34 45 -92 202 -145
393 -57 205 -115 399 -154 515 -32 95 -62 194 -141 470 -19 66 -39 134 -44
150 -5 17 -23 77 -41 135 -24 84 -38 111 -64 137 -55 53 -146 56 -204 7 -43
-36 -54 -65 -276 -709 -189 -549 -220 -637 -276 -778 -32 -82 -76 -181 -96
-220 -174 -330 -572 -386 -764 -107 -54 79 -89 174 -159 435 -33 127 -76 286
-95 355 -19 69 -41 154 -48 190 -15 67 -64 236 -122 420 -34 106 -85 292 -170
610 -48 179 -108 398 -177 644 -22 77 -48 160 -59 184 -54 117 -24 338 73 541
58 122 169 201 284 201 80 0 137 -21 206 -75 94 -74 161 -211 234 -483 14 -53
46 -164 71 -247 25 -82 86 -289 135 -460 90 -308 91 -311 92 -425 1 -156 -18
-215 -214 -655 -91 -204 -103 -233 -85 -211 8 11 15 24 15 29 0 4 4 5 10 2 5
-3 7 -18 4 -33 -4 -20 1 -34 19 -54 21 -23 23 -28 9 -31 -10 -3 2 -5 26 -6 33
-1 54 6 88 30 24 16 42 35 38 40 -3 5 0 8 8 7 7 -2 12 5 12 14 -1 10 1 16 5
14 11 -7 82 107 76 123 -3 8 -1 17 4 20 5 4 12 18 14 31 8 40 18 60 28 54 5
-3 6 1 3 9 -8 21 14 69 28 61 8 -5 9 0 6 14 -4 12 -2 20 3 17 4 -3 11 7 15 22
4 15 17 51 30 79 13 28 39 98 58 155 47 143 90 258 110 297 9 18 26 66 36 107
10 40 30 95 43 122 14 26 32 72 41 102 13 46 68 198 112 311 7 19 36 98 63
175 232 647 276 733 424 820 76 44 129 55 257 52 105 -3 120 -6 181 -35z
m1787 -14 l47 -12 -30 -8 c-17 -5 -58 -10 -91 -11 -52 -3 -68 -9 -102 -36 -23
-17 -52 -44 -64 -59 -25 -28 -55 -43 -42 -20 37 64 104 119 174 144 44 16 51
17 108 2z m214 -191 c16 -32 43 -100 60 -150 28 -85 31 -104 33 -247 2 -85 1
-139 -1 -120 -21 181 -28 230 -49 312 -24 99 -67 195 -109 245 -19 22 -22 33
-14 41 17 17 44 -11 80 -81z m-3729 -2282 c-3 -9 -8 -14 -10 -11 -3 3 -2 9 2
15 9 16 15 13 8 -4z"/>
<path d="M6810 6898 l-23 -33 28 27 c16 15 26 30 23 33 -3 4 -16 -9 -28 -27z"/>
</g>
</svg>
